<svg width="454" height="110" viewBox="0 0 454 110" fill="none" xmlns="http://www.w3.org/2000/svg">
<path fill-rule="evenodd" clip-rule="evenodd" d="M15.0711 17.1754C20.42 11.5309 26.953 7.01971 34.2723 4.03961L32.3067 21.4844L15.0711 17.1754ZM0 55C0 60.7914 0.895122 66.3738 2.55456 71.6162L27.924 60.3812L31.629 27.4996L10.7814 22.2877C4.00669 31.4302 0 42.7472 0 55ZM4.68059 77.2368C8.75843 86.4509 15.2928 94.3352 23.4532 100.059L27.1458 67.2879L4.68059 77.2368ZM29.0999 103.532L29.1851 103.578L82.2052 77.9228L68.7074 48.882L33.5008 64.4735L29.0999 103.532ZM55 110C48.4616 110 42.1897 108.859 36.3724 106.765L84.7344 83.3645L90.913 96.6577C81.2772 104.972 68.7257 110 55 110ZM107.152 72.5175C104.666 79.9202 100.648 86.6196 95.4757 92.2391L90.136 80.7508L107.152 72.5175ZM110 55C110 52.2641 109.8 49.5748 109.414 46.946L86.1899 41.1398L74.1944 46.4521L87.6068 75.3091L109.111 64.904C109.695 61.6913 110 58.3813 110 55ZM108.046 40.4193C107.316 37.7545 106.389 35.1705 105.284 32.6838L95.1162 37.1867L108.046 40.4193ZM55 0C75.2893 0 93.0127 10.9862 102.546 27.3344L85.6452 34.819L66.5711 30.0504L52.6273 0.0502557C53.4141 0.0168647 54.2051 0 55 0ZM46.3052 0.683402C44.3504 0.993867 42.4298 1.40733 40.5493 1.91804L38.1793 22.9525L59.0848 28.1789L46.3052 0.683402ZM34.2791 57.5668L37.5015 28.9677L62.3373 35.1766L66.178 43.4401L34.2791 57.5668ZM71.6651 41.0102L76.7189 38.772L69.8236 37.0482L71.6651 41.0102ZM127.776 83C129.84 83.48 131.88 83.72 133.896 83.72C137.832 83.72 141 82.52 143.4 80.12C145.848 77.672 147.072 73.76 147.072 68.384V30.08H139.08V66.368C139.08 68.96 138.84 70.952 138.36 72.344C137.928 73.736 137.256 74.696 136.344 75.224C135.432 75.752 134.232 76.016 132.744 76.016C131.16 76.016 129.816 75.776 128.712 75.296C127.656 74.768 126.696 74 125.832 72.992L122.592 80.408C123.984 81.608 125.712 82.472 127.776 83ZM169.82 80.408C173.9 82.616 178.34 83.72 183.139 83.72C187.939 83.72 192.355 82.616 196.387 80.408C200.467 78.152 203.708 74.96 206.107 70.832C208.508 66.704 209.708 61.904 209.708 56.432C209.708 50.912 208.508 46.112 206.107 42.032C203.708 37.904 200.467 34.736 196.387 32.528C192.355 30.32 187.939 29.216 183.139 29.216C178.34 29.216 173.9 30.32 169.82 32.528C165.788 34.736 162.572 37.904 160.171 42.032C157.771 46.112 156.572 50.912 156.572 56.432C156.572 61.904 157.771 66.704 160.171 70.832C162.572 74.96 165.788 78.152 169.82 80.408ZM192.212 74.144C189.475 75.68 186.452 76.448 183.139 76.448C179.924 76.448 176.924 75.68 174.139 74.144C171.404 72.56 169.219 70.28 167.587 67.304C165.956 64.28 165.139 60.68 165.139 56.504C165.139 52.28 165.932 48.68 167.516 45.704C169.1 42.68 171.26 40.4 173.995 38.864C176.732 37.328 179.779 36.56 183.139 36.56C186.499 36.56 189.523 37.328 192.212 38.864C194.948 40.4 197.107 42.68 198.691 45.704C200.324 48.68 201.139 52.28 201.139 56.504C201.139 60.68 200.324 64.28 198.691 67.304C197.107 70.28 194.948 72.56 192.212 74.144ZM222.526 77.744C225.502 81.728 230.302 83.72 236.926 83.72C243.214 83.72 247.918 81.728 251.038 77.744C254.206 73.712 255.79 67.928 255.79 60.392V30.08H247.654V60.536C247.654 66.248 246.814 70.304 245.134 72.704C243.502 75.056 240.766 76.232 236.926 76.232C233.086 76.232 230.326 75.032 228.646 72.632C226.966 70.184 226.126 66.152 226.126 60.536V30.08H218.062V60.392C218.062 67.976 219.55 73.76 222.526 77.744ZM276.246 63.128C277.974 63.128 279.942 63.08 282.15 62.984L292.806 83H302.094L289.494 61.256C292.758 59.864 295.206 57.896 296.838 55.352C298.518 52.76 299.358 49.688 299.358 46.136C299.358 40.472 297.39 36.392 293.454 33.896C289.518 31.352 284.502 30.08 278.406 30.08H266.382V83H274.23V63.128H276.246ZM288.99 53.552C287.262 55.568 284.046 56.576 279.342 56.576H274.23V36.776H279.054C287.454 36.776 291.654 39.92 291.654 46.208C291.654 49.04 290.766 51.488 288.99 53.552ZM318.391 54.488L318.175 48.728L349.135 83H350.215V30.08H342.151V58.664L342.439 64.712L311.335 30.008H310.327V83H318.391V54.488ZM384.556 30.08H361.372V83H386.932V75.872H369.364V58.952H381.604V51.752H369.364V37.136H384.556V30.08ZM430.621 83H439.91L414.422 30.008H413.63L388.285 83H397.285L401.822 72.632H426.086L430.621 83ZM417.229 52.616L422.918 65.36H405.061L410.822 52.544L413.99 45.344H414.134L417.229 52.616ZM453.343 30.08H445.279V83H453.343V30.08Z" fill="#48D1CC"/>
</svg>
