<svg width="71" height="76" viewBox="0 0 71 76" fill="none" xmlns="http://www.w3.org/2000/svg">
<g clip-path="url(#clip0_5019_36162)">
<path d="M5.26923 73.3419H6.65255L6.61374 73.6209C6.60004 73.7277 6.56352 73.838 6.50417 73.9493C6.4471 74.0596 6.36493 74.1653 6.26106 74.262C6.15834 74.3576 6.0328 74.4364 5.88899 74.4971C5.74632 74.5556 5.58082 74.586 5.39706 74.586C5.19847 74.586 5.00558 74.5522 4.82297 74.4859C4.64263 74.424 4.47942 74.3127 4.33561 74.1552C4.19066 73.9966 4.0731 73.7772 3.9875 73.5027C3.89962 73.2238 3.8551 72.8661 3.8551 72.4375C3.8551 71.9111 3.92244 71.4847 4.05598 71.1675C4.18724 70.857 4.36643 70.6287 4.58785 70.4903C4.81041 70.3509 5.06493 70.28 5.34114 70.28C5.56941 70.28 5.77028 70.3284 5.9392 70.424C6.10926 70.5196 6.25193 70.6512 6.3615 70.8121C6.47336 70.9752 6.54868 71.1563 6.58521 71.3497L6.60233 71.442H8.26185L8.25614 71.3239C8.2413 71.0112 8.16141 70.7074 8.01646 70.4228C7.87151 70.136 7.66949 69.8762 7.41382 69.6489C7.16273 69.424 6.85913 69.2417 6.51444 69.1101C6.17318 68.9796 5.78855 68.9133 5.37195 68.9133C4.73052 68.9133 4.1587 69.0595 3.67249 69.3486C3.18627 69.6399 2.80392 70.0573 2.53685 70.5893C2.26863 71.1191 2.13281 71.7536 2.13281 72.4746C2.13281 73.1855 2.26178 73.811 2.51631 74.334C2.77311 74.8616 3.1429 75.2767 3.6177 75.5658C4.09136 75.8537 4.65633 76 5.29663 76C5.67327 76 5.99855 75.9482 6.26221 75.847C6.52129 75.748 6.74614 75.6164 6.93103 75.4578C7.01549 75.3824 7.09425 75.307 7.16729 75.2317V75.9077H8.33033V72.1956L5.26581 72.181V73.3419H5.26923Z" fill="#002664"/>
<path d="M14.0859 69.345C13.6065 69.0593 13.0347 68.9142 12.3876 68.9142C11.7382 68.9142 11.1641 69.0604 10.679 69.3484C10.1939 69.6375 9.8127 70.0526 9.54677 70.5835C9.28197 71.1099 9.14844 71.7455 9.14844 72.471C9.14844 73.1932 9.28083 73.8243 9.54106 74.3473C9.80585 74.876 10.1859 75.2866 10.6676 75.5701C11.1492 75.8547 11.7279 75.9998 12.3864 75.9998C13.0393 75.9998 13.6145 75.8558 14.0939 75.5701C14.5767 75.2843 14.9533 74.8715 15.2136 74.3428C15.4715 73.8186 15.6016 73.1887 15.6016 72.4699C15.6016 71.741 15.4692 71.1043 15.209 70.579C14.9465 70.0481 14.5676 69.633 14.0859 69.345ZM13.1842 74.4508C12.9628 74.5925 12.6946 74.6645 12.3876 74.6645C12.0828 74.6645 11.8158 74.5925 11.5932 74.4497C11.3706 74.3091 11.1949 74.0785 11.0705 73.7669C10.9426 73.4463 10.8776 73.0155 10.8776 72.4879C10.8776 71.9513 10.9426 71.5115 11.0716 71.1797C11.196 70.8568 11.3729 70.6184 11.5955 70.471C11.8192 70.3236 12.0863 70.2483 12.3887 70.2483C12.69 70.2483 12.956 70.3236 13.1797 70.471C13.4011 70.6195 13.5757 70.8568 13.6978 71.1774C13.8245 71.507 13.8896 71.948 13.8896 72.489C13.8896 73.0155 13.8257 73.4463 13.7013 73.768C13.578 74.0785 13.4045 74.3091 13.1842 74.4508Z" fill="#002664"/>
<path d="M18.9198 73.8692L17.226 69.03H15.6875L18.0661 75.8838H19.769L22.1681 69.03H20.6272L18.9198 73.8692Z" fill="#002664"/>
<path d="M24.4268 73.102H27.2573V71.7657H24.4348V70.3843H27.6853L27.6899 69.03H22.8438V75.8838H27.7367V74.5194L24.4268 74.5149V73.102Z" fill="#002664"/>
<path d="M33.4365 72.6869C33.6248 72.5205 33.7789 72.3067 33.8976 72.0514C34.0129 71.7983 34.0722 71.4867 34.0722 71.1234C34.0722 70.7173 33.9866 70.3539 33.8165 70.0424C33.6465 69.7251 33.3771 69.4743 33.0142 69.2943C32.6569 69.1188 32.197 69.03 31.6468 69.03H28.6953V75.8816H30.2784V73.3292H31.4437L32.5405 75.8816H34.2023L32.924 73.0435C33.1089 72.9468 33.2812 72.8264 33.4365 72.6869ZM32.4709 71.156C32.4709 71.4271 32.3784 71.6419 32.189 71.8152C31.9995 71.9861 31.7359 72.0728 31.4037 72.0728H30.2784V70.2797H31.503C31.7884 70.2797 32.0178 70.3573 32.2027 70.5171C32.383 70.6734 32.4709 70.8826 32.4709 71.156Z" fill="#002664"/>
<path d="M39.5285 73.1639L36.6352 69.03H35.1172V75.8838H36.7002V71.5789L39.7179 75.8838H41.1161V69.03H39.5285V73.1639Z" fill="#002664"/>
<path d="M45.9675 73.498L44.5135 69.03H42.3438V75.8838H43.9405V71.4687L45.3489 75.8838H46.5816L48.0003 71.444V75.8838H49.6016V69.03H47.4364L45.9675 73.498Z" fill="#002664"/>
<path d="M52.4034 73.102H55.2339V71.7657H52.4136V70.3843H55.6619L55.6676 69.03H50.8203V75.8838H55.7144V74.5194L52.4034 74.5149V73.102Z" fill="#002664"/>
<path d="M61.1457 73.1639L58.2535 69.03H56.7344V75.8838H58.3163V71.5789L61.334 75.8838H62.7322V69.03H61.1457V73.1639Z" fill="#002664"/>
<path d="M63.3984 70.4484H65.4289V75.8838H67.0222V70.4484H69.0059V69.03H63.3984V70.4484Z" fill="#002664"/>
<path d="M7.12649 52.0499L17.2731 66.5203H21.4002V44.8811H16.7834V58.8003L7.07627 44.9295L7.04203 44.8811H2.52344V66.5203H7.12649V52.0499Z" fill="#002664"/>
<path d="M40.3145 56.7927C39.907 56.1426 39.293 55.552 38.4895 55.0379C37.6871 54.5239 36.5937 54.1313 35.2435 53.8714L31.4839 53.1077C30.3482 52.8658 29.5653 52.5531 29.1567 52.1796C28.7583 51.8152 28.5563 51.3304 28.5563 50.7387C28.5563 50.3618 28.6431 50.0188 28.8154 49.7184C28.9866 49.4169 29.2354 49.1504 29.5539 48.9254C29.8746 48.7004 30.2729 48.5227 30.7374 48.3978C31.2077 48.2707 31.7361 48.2066 32.3079 48.2066C33.0612 48.2066 33.7403 48.3045 34.327 48.4991C34.9068 48.6925 35.3873 49.0097 35.7548 49.4439C36.1223 49.8781 36.3483 50.4687 36.4259 51.1988L36.4362 51.3H41.1009L41.0986 51.1841C41.078 49.9423 40.7219 48.8028 40.0405 47.7983C39.358 46.7926 38.3525 45.985 37.0502 45.3955C35.7514 44.8083 34.1307 44.5103 32.2326 44.5103C30.6381 44.5103 29.1772 44.7847 27.8886 45.3269C26.5966 45.8702 25.5592 46.6543 24.807 47.6576C24.0514 48.6667 23.6748 49.8736 23.6862 51.2471C23.717 52.9232 24.2329 54.2831 25.219 55.2922C26.2017 56.2955 27.5485 56.9637 29.2229 57.2753L33.0144 58.038C33.7095 58.1741 34.3407 58.3529 34.8897 58.57C35.4284 58.7826 35.8587 59.0594 36.168 59.3923C36.4704 59.7174 36.6234 60.1449 36.6234 60.6601C36.6234 61.2337 36.4328 61.7186 36.0572 62.0988C35.6726 62.488 35.1499 62.7816 34.5062 62.9739C33.8499 63.1696 33.116 63.2686 32.3251 63.2686C31.5535 63.2686 30.8424 63.1505 30.2124 62.9166C29.5858 62.686 29.0597 62.3485 28.6488 61.9143C28.239 61.4823 27.9583 60.9413 27.8133 60.308L27.7928 60.2191H23.0391L23.0516 60.344C23.1635 61.4418 23.5093 62.4149 24.0788 63.2371C24.6472 64.0538 25.3754 64.7422 26.2428 65.2867C27.108 65.8277 28.0781 66.2405 29.127 66.5116C30.1736 66.7816 31.2556 66.9189 32.341 66.9189C34.1181 66.9189 35.6943 66.6421 37.0263 66.0954C38.3639 65.5465 39.4219 64.7906 40.1729 63.8491C40.9297 62.9008 41.3131 61.8198 41.3131 60.6331C41.3131 60.0729 41.2492 59.4497 41.1214 58.7815C40.9901 58.1077 40.7185 57.4384 40.3145 56.7927Z" fill="#002664"/>
<path d="M65.1274 44.8816L61.1726 58.7209L57.1733 44.8816H53.8292L49.8744 58.7187L45.9208 44.8816H41.3828L47.8508 66.5208H51.4643L55.4933 52.8221L59.4937 66.5208H63.1677L69.6505 44.8816H65.1274Z" fill="#002664"/>
<path d="M33.6088 39.5125C28.1805 38.8545 22.9075 40.5721 13.6295 38.0839C12.6822 37.8297 12.3329 38.8151 12.8454 39.6407C15.3381 43.6588 27.9294 40.5103 33.6339 39.9298C33.8827 39.904 33.8576 39.5429 33.6088 39.5125Z" fill="#D7153A"/>
<path d="M57.3747 38.0839C48.0967 40.5721 42.8236 38.8545 37.3954 39.5125C37.1466 39.5429 37.1203 39.9051 37.3703 39.9298C43.0759 40.5103 55.6661 43.6588 58.1588 39.6407C58.6712 38.8151 58.322 37.8297 57.3747 38.0839Z" fill="#D7153A"/>
<path d="M16.4587 32.3357C14.5721 29.6057 13.0301 26.5516 11.8363 23.1917C8.23531 24.2299 4.5499 25.7282 0.798296 27.6889C0.313224 27.942 0.0153318 28.4167 0.000494252 28.9566C-0.0132019 29.4966 0.258438 29.9848 0.729815 30.2626C7.99449 34.5517 15.0971 37.0051 21.8744 37.5732C19.8565 36.3583 18.0064 34.5754 16.4587 32.3357Z" fill="#D7153A"/>
<path d="M6.33434 23.2106C7.99615 22.5548 9.64311 21.9923 11.2752 21.5188C10.6909 19.647 10.2115 17.6863 9.83257 15.6402C7.9562 15.4096 6.01477 15.26 4.006 15.1947C3.98888 15.1947 3.97062 15.1936 3.9535 15.1936C3.42733 15.1936 2.95253 15.4546 2.67633 15.9C2.39099 16.359 2.37844 16.9158 2.64323 17.3882C3.80968 19.467 5.0412 21.4074 6.33434 23.2106Z" fill="#D7153A"/>
<path d="M24.1896 36.7981C25.3161 37.2885 26.4689 37.563 27.5863 37.6204C24.8505 35.6878 22.7013 32.4111 21.4629 28.2344C19.8673 22.8575 19.3343 16.9249 19.8605 10.5244C17.7079 9.18469 15.375 7.93046 12.8629 6.76509C12.3778 6.54012 11.8231 6.58399 11.378 6.88208C10.934 7.17904 10.6886 7.67061 10.7217 8.19593C11.3061 17.4829 13.7315 25.2726 17.9293 31.3481C19.6893 33.897 21.8544 35.7812 24.1896 36.7981Z" fill="#D7153A"/>
<path d="M29.5399 6.39956C28.2524 4.85848 26.8554 3.33428 25.3477 1.82807C25.0555 1.5356 24.6789 1.38037 24.2897 1.38037C24.1504 1.38037 24.01 1.40062 23.8708 1.44112C23.3424 1.59522 22.96 2.01255 22.8447 2.55811C22.5503 3.95971 21.9899 6.81689 21.7422 9.64257C23.6699 10.8946 25.4504 12.2185 27.0814 13.6111C27.7137 11.2343 28.5355 8.82591 29.5399 6.39956Z" fill="#D7153A"/>
<path d="M70.2023 27.6876C66.4506 25.727 62.7652 24.2286 59.1643 23.1904C57.9704 26.5504 56.4285 29.6044 54.5418 32.3345C52.9942 34.5752 51.144 36.357 49.125 37.5719C55.9023 37.0038 63.0049 34.5505 70.2696 30.2613C70.741 29.9835 71.0137 29.4953 70.9989 28.9553C70.9864 28.4154 70.6873 27.9418 70.2023 27.6876Z" fill="#D7153A"/>
<path d="M64.6675 23.2107C65.9606 21.4076 67.1921 19.466 68.3586 17.3873C68.6234 16.9148 68.6119 16.3591 68.3255 15.899C68.0493 15.4547 67.5745 15.1926 67.0483 15.1926C67.0312 15.1926 67.0129 15.1926 66.9958 15.1938C64.987 15.259 63.0445 15.4097 61.1692 15.6392C60.7914 17.6853 60.3109 19.646 59.7266 21.5178C61.3587 21.9925 63.0068 22.556 64.6675 23.2107Z" fill="#D7153A"/>
<path d="M49.5452 28.2354C48.3068 32.4109 46.1565 35.6888 43.4219 37.6213C44.5393 37.564 45.6932 37.2884 46.8185 36.7979C49.1537 35.7811 51.3188 33.8969 53.0788 31.3491C57.2767 25.2736 59.702 17.4839 60.2864 8.19691C60.3195 7.67159 60.0741 7.18002 59.6301 6.88305C59.185 6.58496 58.6303 6.54109 58.1452 6.76607C55.6331 7.93031 53.3002 9.18455 51.1476 10.5254C51.6738 16.9259 51.1397 22.8574 49.5452 28.2354Z" fill="#D7153A"/>
<path d="M49.2586 9.64134C49.0109 6.81679 48.4505 3.95961 48.1561 2.55689C48.0419 2.01133 47.6584 1.594 47.13 1.43989C46.9908 1.3994 46.8504 1.37915 46.7111 1.37915C46.3219 1.37915 45.9453 1.53438 45.6531 1.82685C44.1454 3.33305 42.7484 4.85726 41.4609 6.39833C42.4653 8.82469 43.2871 11.233 43.9205 13.6088C45.5515 12.2173 47.3309 10.8933 49.2586 9.64134Z" fill="#D7153A"/>
<path d="M35.4993 23.6763C37.3243 20.1229 40.2393 16.9372 42.4284 14.9248C41.2265 10.0991 39.3764 5.54675 36.8221 0.784037C36.5584 0.292467 36.0631 0 35.5004 0C34.9377 0 34.4435 0.293592 34.1787 0.784037C31.5981 5.5625 29.716 10.3173 28.5781 14.9237C30.8631 17.0103 33.8774 20.4131 35.4993 23.6763Z" fill="#D7153A"/>
<path d="M42.1999 36.2861C44.0922 34.9745 45.9846 32.6887 47.1853 29.5087C49.5102 23.3523 49.751 16.495 49.4177 11.6423C45.2039 14.4151 38.5156 20.206 36.2317 26.3973C35.1566 29.3107 34.6556 33.2793 35.4842 35.493C35.83 36.4188 36.4189 37.1207 37.2281 37.4548C38.454 37.961 40.3372 37.5785 42.1999 36.2861Z" fill="#D7153A"/>
<path d="M34.5489 25.8566C33.9919 24.5742 33.3778 23.365 32.4248 22.0061C29.729 18.1624 26.096 14.6956 21.5752 11.6415C21.5284 12.3615 20.8687 20.1366 23.1833 27.7385C24.9444 33.5203 27.953 35.8758 29.6023 36.7858C31.2618 37.7004 32.7798 37.9163 34.5603 37.4799C32.7558 35.0547 32.9807 30.0782 34.5489 25.8566Z" fill="#D7153A"/>
</g>
<defs>
<clipPath id="clip0_5019_36162">
<rect width="71" height="76" fill="white"/>
</clipPath>
</defs>
</svg>
