<svg xmlns="http://www.w3.org/2000/svg" width="40" height="40" viewBox="0 0 40 40" fill="none">
  <path d="M38.5911 8.35714C38.1936 8.16768 38.0233 8.5466 37.7773 8.73607C37.7016 8.79291 37.6258 8.88764 37.5691 8.94448C36.9823 9.56971 36.301 9.98653 35.3925 9.92969C34.0866 9.8539 32.9699 10.2707 31.9668 11.2749C31.7586 10.0244 31.0583 9.28551 29.9984 8.81185C29.4495 8.56555 28.8818 8.31925 28.4843 7.78875C28.2193 7.40982 28.1436 6.97406 28.0111 6.55724C27.9165 6.31093 27.8408 6.04568 27.538 6.00779C27.2162 5.95095 27.1026 6.2162 26.9702 6.44356C26.4781 7.35298 26.2888 8.35714 26.3077 9.3613C26.3456 11.6349 27.3108 13.4537 29.2224 14.7421C29.4496 14.8936 29.4874 15.0452 29.4306 15.2536C29.2981 15.6894 29.1467 16.1251 29.0142 16.5799C28.9196 16.8641 28.7871 16.9209 28.4843 16.8072C27.4433 16.3715 26.5349 15.7273 25.7399 14.9315C24.3772 13.6242 23.147 12.1654 21.6329 11.0286C21.2733 10.7633 20.9136 10.517 20.5351 10.2707C18.9831 8.75501 20.7433 7.50455 21.1408 7.35298C21.5572 7.20141 21.2922 6.67091 19.9105 6.67091C18.5289 6.67091 17.2608 7.14457 15.652 7.75086C15.406 7.84559 15.1789 7.90243 14.9139 7.95927C13.4566 7.67507 11.9424 7.61823 10.3526 7.80769C7.36219 8.14873 4.97744 9.55076 3.23619 11.9759C1.13534 14.8747 0.624317 18.1714 1.2489 21.6196C1.8924 25.2383 3.72828 28.2508 6.56727 30.5812C9.5009 33.0064 12.8888 34.2 16.7498 33.9726C19.0967 33.84 21.7086 33.5179 24.6611 31.017C25.3993 31.3959 26.1942 31.5285 27.4812 31.6422C28.4843 31.737 29.4306 31.5854 30.1877 31.4338C31.3422 31.1875 31.2665 30.1076 30.8501 29.9181C27.4433 28.3266 28.1815 28.9708 27.5001 28.4403C29.2414 26.3941 31.8532 24.2531 32.8753 17.3188C32.951 16.7693 32.8753 16.4283 32.8753 15.9736C32.8753 15.7083 32.932 15.5947 33.2349 15.5757C34.0866 15.481 34.9193 15.2347 35.6764 14.8179C37.8908 13.6053 38.7804 11.6159 38.9886 9.22867C39.0264 8.86869 38.9886 8.48977 38.5911 8.3003V8.35714ZM19.3238 29.8044C16.0117 27.1898 14.4218 26.3372 13.7405 26.3751C13.1159 26.413 13.2294 27.114 13.3619 27.5877C13.4944 28.0424 13.6837 28.3645 13.9487 28.7624C14.119 29.0276 14.2515 29.4255 13.7783 29.7097C12.7184 30.3728 10.8636 29.4823 10.769 29.4444C8.61135 28.175 6.81332 26.4888 5.54524 24.1963C4.31501 21.9796 3.61472 19.6113 3.48224 17.0914C3.44438 16.4851 3.63365 16.2578 4.2393 16.1441C5.03422 15.9925 5.86699 15.9546 6.66191 16.0873C10.0308 16.5799 12.9077 18.0956 15.3114 20.4828C16.693 21.8469 17.734 23.4763 18.7939 25.0678C19.9295 26.7541 21.1597 28.3645 22.7117 29.6907C23.2605 30.1455 23.6959 30.5054 24.1312 30.7707C22.8631 30.9223 20.7433 30.9412 19.286 29.8044H19.3238ZM20.9136 19.5923C20.9136 19.3081 21.1218 19.0997 21.4057 19.0997C21.6896 19.0997 21.5193 19.0997 21.5761 19.1376C21.6329 19.1566 21.7086 19.1945 21.7464 19.2513C21.8411 19.346 21.8789 19.4597 21.8789 19.5923C21.8789 19.8576 21.6707 20.0849 21.3868 20.0849C21.1029 20.0849 20.9136 19.8765 20.9136 19.5923ZM25.8346 22.1122C25.5128 22.2448 25.21 22.3585 24.9072 22.3585C24.434 22.3774 23.923 22.188 23.6391 21.9606C23.2038 21.6006 22.9009 21.3922 22.7685 20.7481C22.7117 20.4828 22.7495 20.066 22.7874 19.8197C22.9009 19.3081 22.7874 18.9671 22.4088 18.664C22.106 18.4177 21.7275 18.3419 21.3111 18.3419C20.8947 18.3419 21.0083 18.285 20.9136 18.2282C20.7433 18.1335 20.5919 17.9251 20.7433 17.6598C20.7812 17.5651 20.9894 17.3567 21.0461 17.3377C21.6139 17.0156 22.2574 17.1104 22.8631 17.3567C23.412 17.584 23.8473 18.0008 24.4529 18.6071C25.0775 19.3271 25.1911 19.5165 25.5317 20.066C25.8156 20.4828 26.0617 20.9186 26.232 21.4112C26.3456 21.7143 26.1942 21.9796 25.8346 22.1311V22.1122Z" fill="#1B64F1"/>
</svg>