<svg xmlns="http://www.w3.org/2000/svg" fill="none" viewBox="0 0 215 24" height="24" width="215">
<path fill="#6720FF" d="M29.0182 0.37854L23.5262 13.5391L18.0291 0.37854H14.5027L20.5278 14.7653C21.0276 15.9657 22.1996 16.741 23.5056 16.741C24.8116 16.741 25.9811 15.9657 26.4834 14.7704L32.5447 0.37854H29.0182ZM31.3649 20.4298L41.4111 10.2728L40.0407 7.03997L29.0671 18.1552C28.1501 19.0852 27.8873 20.4556 28.3948 21.656C28.8997 22.8461 30.0666 23.6163 31.3675 23.6163L31.3726 23.6214L47.0576 23.5828L45.6872 20.35L31.3675 20.4298H31.3649ZM5.6465 10.2651L7.01691 7.03224L17.9905 18.1475C18.9075 19.0749 19.1729 20.4504 18.6628 21.6482C18.1579 22.8409 16.9859 23.6085 15.6902 23.6085L0.00515192 23.5725L0 23.5776L1.37041 20.3448L15.6902 20.4247L5.6465 10.2651Z" clip-rule="evenodd" fill-rule="evenodd"></path>
<path fill="black" d="M59.5872 22.3308L59.5898 22.3334H62.2868V13.0445H70.9987V10.636H62.2868V4.59279H71.8694V2.18427H59.5872V22.3308Z"></path>
<path fill="black" d="M77.1964 7.77924H74.6669V22.3308H77.1964V7.77924Z"></path>
<path fill="black" d="M83.6106 9.70866H83.6132C83.5565 9.84776 83.5024 9.93277 83.3324 9.93277C83.1907 9.93277 83.1366 9.87867 83.1366 9.73957V7.77927H80.607V22.3309H83.1315V14.0723C83.1315 11.2774 84.4272 10.1852 86.8718 10.1852H88.8965V7.7226H87.2659C85.2721 7.7226 84.2597 8.30991 83.6106 9.70866Z"></path>
<path fill="black" d="M97.3095 20.574C94.5971 20.574 92.5723 19.0336 92.4023 15.7621H104.223V14.3608C104.223 10.3037 101.75 7.3645 97.2503 7.3645C92.7501 7.3645 89.883 10.3037 89.883 15.0589C89.883 19.8141 92.6651 22.7533 97.3044 22.7533C101.944 22.7533 103.85 19.93 104.278 17.7199H101.64C101.23 19.3736 100.022 20.574 97.3095 20.574ZM97.2503 9.54119C99.9241 9.54119 101.578 10.9708 101.694 13.6576H92.4719C92.8918 10.9116 94.8315 9.54119 97.2503 9.54119Z"></path>
<path fill="black" d="M122.175 19.6158C122.113 19.8682 122.036 19.9532 121.835 19.9532C121.634 19.9532 121.549 19.8682 121.495 19.6158L118.682 7.77924H114.324L111.511 19.6158C111.449 19.8682 111.372 19.9532 111.171 19.9532C110.97 19.9532 110.885 19.8682 110.831 19.6158L108.018 7.77924H105.545V8.3408H105.56L108.992 22.3308H113.335L116.233 10.1285C116.287 9.93016 116.341 9.87607 116.511 9.87607C116.65 9.87607 116.735 9.93531 116.789 10.1285L119.687 22.3308H124.03L127.461 8.3408V7.77924H124.988L122.175 19.6158Z"></path>
<path fill="black" d="M136.281 7.36194C132.033 7.36194 128.662 10.0178 128.662 15.0563C128.662 20.0949 132.031 22.7507 136.281 22.7507C140.532 22.7507 143.904 20.0949 143.904 15.0563C143.904 10.0178 140.529 7.36194 136.281 7.36194ZM136.286 20.5122C133.334 20.5122 131.225 18.5571 131.225 15.0563C131.225 11.5556 133.334 9.60045 136.286 9.60045C139.238 9.60045 141.348 11.5608 141.348 15.0563C141.348 18.5519 139.238 20.5122 136.286 20.5122Z"></path>
<path fill="black" d="M149.581 9.70866C149.527 9.84776 149.473 9.93277 149.303 9.93277C149.161 9.93277 149.107 9.87867 149.107 9.73957V7.77927H146.577V22.3283H149.102V14.0723C149.102 11.2774 150.398 10.1852 152.842 10.1852H154.867V7.7226H153.236C151.242 7.7226 150.23 8.30991 149.581 9.70866Z"></path>
<path fill="black" d="M159.346 14.5515V2.18427H156.817V22.3437H159.346V17.6967L162.09 15.3577L167.546 22.3386H170.312V21.777L163.957 13.7581L170.312 8.34081V7.77925H167.061L159.346 14.5515Z"></path>
<path fill="black" d="M179.078 14.0027L176.999 13.6112C175.006 13.2325 174.132 12.8152 174.132 11.6097C174.132 10.4041 175.119 9.51026 177.479 9.51026C179.838 9.51026 181.188 10.4093 181.384 12.3953H183.96C183.674 8.84824 180.92 7.36707 177.468 7.36707C174.016 7.36707 171.593 8.85082 171.593 11.6457C171.593 14.4407 173.576 15.4092 176.43 15.9399L178.509 16.3314C180.534 16.7101 181.546 17.1454 181.546 18.4025C181.546 19.6595 180.531 20.5972 178.089 20.5972C175.647 20.5972 174.027 19.59 173.831 17.658H171.258C171.497 21.1278 174.323 22.7507 178.092 22.7507C181.86 22.7507 184.081 21.1433 184.081 18.2582C184.081 15.3732 181.747 14.5051 179.078 14.0027Z"></path>
<path fill="black" d="M215 2.18427H212.164V22.3437H215V2.18427Z"></path>
<path fill="black" d="M198.408 2.18427L190.546 21.9754V22.3437H193.354L195.345 17.081H204.81L206.801 22.3437H209.694V21.9805L201.775 2.18427H198.408ZM196.28 14.6442L199.66 5.79061H199.658C199.714 5.63863 199.861 5.53817 200.023 5.53817H200.162C200.325 5.53817 200.472 5.63863 200.528 5.79061L203.882 14.6442H196.28Z"></path>
<path fill="black" d="M77.1964 2.18427H74.6669V5.15177H77.1964V2.18427Z"></path>
</svg>
