<svg xmlns="http://www.w3.org/2000/svg" width="38" height="38" viewBox="0 0 38 38" fill="none">
  <path d="M11.2003 8.463C12.3 8.463 13.1915 7.57148 13.1915 6.47173C13.1915 5.37199 12.3 4.48047 11.2003 4.48047C10.1005 4.48047 9.20898 5.37199 9.20898 6.47173C9.20898 7.57148 10.1005 8.463 11.2003 8.463Z" fill="#EA4335"/>
  <path d="M11.2003 16.7599C12.3 16.7599 13.1915 15.8684 13.1915 14.7686C13.1915 13.6689 12.3 12.7773 11.2003 12.7773C10.1005 12.7773 9.20898 13.6689 9.20898 14.7686C9.20898 15.8684 10.1005 16.7599 11.2003 16.7599Z" fill="#EA4335"/>
  <path d="M11.2003 25.0568C12.3 25.0568 13.1915 24.1652 13.1915 23.0655C13.1915 21.9657 12.3 21.0742 11.2003 21.0742C10.1005 21.0742 9.20898 21.9657 9.20898 23.0655C9.20898 24.1652 10.1005 25.0568 11.2003 25.0568Z" fill="#EA4335"/>
  <path d="M11.2003 33.3536C12.3 33.3536 13.1915 32.4621 13.1915 31.3624C13.1915 30.2626 12.3 29.3711 11.2003 29.3711C10.1005 29.3711 9.20898 30.2626 9.20898 31.3624C9.20898 32.4621 10.1005 33.3536 11.2003 33.3536Z" fill="#EA4335"/>
  <path d="M18.3368 4.64629C19.6199 4.64629 20.66 3.60618 20.66 2.32314C20.66 1.04011 19.6199 0 18.3368 0C17.0538 0 16.0137 1.04011 16.0137 2.32314C16.0137 3.60618 17.0538 4.64629 18.3368 4.64629Z" fill="#FBBC04"/>
  <path d="M18.3368 12.9432C19.6199 12.9432 20.66 11.9031 20.66 10.62C20.66 9.33698 19.6199 8.29688 18.3368 8.29688C17.0538 8.29688 16.0137 9.33698 16.0137 10.62C16.0137 11.9031 17.0538 12.9432 18.3368 12.9432Z" fill="#FBBC04"/>
  <path d="M18.3368 21.2403C19.6199 21.2403 20.66 20.2002 20.66 18.9171C20.66 17.6341 19.6199 16.594 18.3368 16.594C17.0538 16.594 16.0137 17.6341 16.0137 18.9171C16.0137 20.2002 17.0538 21.2403 18.3368 21.2403Z" fill="#FBBC04"/>
  <path d="M18.3368 29.5372C19.6199 29.5372 20.66 28.4971 20.66 27.214C20.66 25.931 19.6199 24.8909 18.3368 24.8909C17.0538 24.8909 16.0137 25.931 16.0137 27.214C16.0137 28.4971 17.0538 29.5372 18.3368 29.5372Z" fill="#FBBC04"/>
  <path d="M18.3368 38C19.6199 38 20.66 36.9599 20.66 35.6769C20.66 34.3939 19.6199 33.3538 18.3368 33.3538C17.0538 33.3538 16.0137 34.3939 16.0137 35.6769C16.0137 36.9599 17.0538 38 18.3368 38Z" fill="#FBBC04"/>
  <path d="M25.3884 9.29263C26.9005 9.29263 28.1264 8.06679 28.1264 6.55464C28.1264 5.04249 26.9005 3.81665 25.3884 3.81665C23.8762 3.81665 22.6504 5.04249 22.6504 6.55464C22.6504 8.06679 23.8762 9.29263 25.3884 9.29263Z" fill="#34A853"/>
  <path d="M25.3884 17.5895C26.9005 17.5895 28.1264 16.3637 28.1264 14.8515C28.1264 13.3394 26.9005 12.1135 25.3884 12.1135C23.8762 12.1135 22.6504 13.3394 22.6504 14.8515C22.6504 16.3637 23.8762 17.5895 25.3884 17.5895Z" fill="#34A853"/>
  <path d="M25.3884 25.8864C26.9005 25.8864 28.1264 24.6605 28.1264 23.1484C28.1264 21.6362 26.9005 20.4104 25.3884 20.4104C23.8762 20.4104 22.6504 21.6362 22.6504 23.1484C22.6504 24.6605 23.8762 25.8864 25.3884 25.8864Z" fill="#34A853"/>
  <path d="M25.3884 34.1835C26.9005 34.1835 28.1264 32.9577 28.1264 31.4455C28.1264 29.9334 26.9005 28.7075 25.3884 28.7075C23.8762 28.7075 22.6504 29.9334 22.6504 31.4455C22.6504 32.9577 23.8762 34.1835 25.3884 34.1835Z" fill="#34A853"/>
  <path d="M32.4419 13.773C34.1832 13.773 35.5947 12.3614 35.5947 10.6201C35.5947 8.87886 34.1832 7.46729 32.4419 7.46729C30.7006 7.46729 29.2891 8.87886 29.2891 10.6201C29.2891 12.3614 30.7006 13.773 32.4419 13.773Z" fill="#4285F4"/>
  <path d="M4.06564 12.2795C4.98209 12.2795 5.72503 11.5365 5.72503 10.6201C5.72503 9.70363 4.98209 8.96069 4.06564 8.96069C3.14918 8.96069 2.40625 9.70363 2.40625 10.6201C2.40625 11.5365 3.14918 12.2795 4.06564 12.2795Z" fill="#4285F4"/>
  <path d="M4.06564 20.5763C4.98209 20.5763 5.72503 19.8334 5.72503 18.917C5.72503 18.0005 4.98209 17.2576 4.06564 17.2576C3.14918 17.2576 2.40625 18.0005 2.40625 18.917C2.40625 19.8334 3.14918 20.5763 4.06564 20.5763Z" fill="#4285F4"/>
  <path d="M4.06564 28.8735C4.98209 28.8735 5.72503 28.1305 5.72503 27.2141C5.72503 26.2976 4.98209 25.5547 4.06564 25.5547C3.14918 25.5547 2.40625 26.2976 2.40625 27.2141C2.40625 28.1305 3.14918 28.8735 4.06564 28.8735Z" fill="#4285F4"/>
  <path d="M32.4419 22.0698C34.1832 22.0698 35.5947 20.6583 35.5947 18.917C35.5947 17.1757 34.1832 15.7642 32.4419 15.7642C30.7006 15.7642 29.2891 17.1757 29.2891 18.917C29.2891 20.6583 30.7006 22.0698 32.4419 22.0698Z" fill="#4285F4"/>
  <path d="M32.4419 30.367C34.1832 30.367 35.5947 28.9554 35.5947 27.2141C35.5947 25.4729 34.1832 24.0613 32.4419 24.0613C30.7006 24.0613 29.2891 25.4729 29.2891 27.2141C29.2891 28.9554 30.7006 30.367 32.4419 30.367Z" fill="#4285F4"/>
</svg>