<svg xmlns="http://www.w3.org/2000/svg" width="40" height="40" viewBox="0 0 40 40" fill="none">
  <path d="M36.4942 16.5532C37.3679 13.9656 37.0671 11.131 35.6698 8.77728C33.5686 5.1672 29.3444 3.30991 25.2188 4.18393C23.3835 2.14376 20.7467 0.983551 17.9823 1.00018C13.7653 0.990676 10.0237 3.66973 8.72636 7.62894C6.01733 8.17639 3.67897 9.84962 2.31061 12.2211C0.193694 15.8217 0.676289 20.3604 3.50446 23.448C2.63074 26.0356 2.93161 28.8702 4.32885 31.2239C6.43012 34.834 10.6543 36.6913 14.7799 35.8172C16.614 37.8574 19.252 39.0176 22.0164 38.9998C26.2358 39.0105 29.9786 36.3291 31.2759 32.3663C33.985 31.8188 36.3233 30.1456 37.6917 27.7741C39.8062 24.1735 39.3224 19.6384 36.4954 16.5508L36.4942 16.5532ZM22.0188 36.5167C20.3303 36.5191 18.6948 35.936 17.3986 34.8684C17.4576 34.8375 17.5599 34.7817 17.6261 34.7413L25.2946 30.3712C25.687 30.1515 25.9277 29.7395 25.9253 29.2942V18.6266L29.1662 20.4732C29.2011 20.4898 29.224 20.5231 29.2288 20.5611V29.3951C29.224 33.3234 25.9999 36.5084 22.0188 36.5167ZM6.51316 29.9817C5.66711 28.5401 5.36263 26.8502 5.65267 25.2103C5.70924 25.2435 5.80912 25.3041 5.88013 25.3444L13.5487 29.7145C13.9374 29.939 14.4188 29.939 14.8087 29.7145L24.1706 24.3802V28.0734C24.173 28.1114 24.155 28.1482 24.1249 28.1719L16.3733 32.5884C12.9205 34.5501 8.51093 33.384 6.51436 29.9817H6.51316ZM4.49493 13.4644C5.33736 12.0204 6.6672 10.916 8.25098 10.3424C8.25098 10.4078 8.24737 10.5229 8.24737 10.6037V19.3451C8.24496 19.7892 8.48566 20.2013 8.87679 20.421L18.2387 25.7541L14.9977 27.6007C14.9652 27.6221 14.9243 27.6257 14.8882 27.6102L7.13536 23.1903C3.6898 21.2214 2.50798 16.8715 4.49372 13.4656L4.49493 13.4644ZM31.1231 19.579L21.7612 14.2446L25.0022 12.3992C25.0347 12.3779 25.0756 12.3743 25.1117 12.3897L32.8645 16.8061C36.3161 18.7739 37.4991 23.1309 35.505 26.5367C34.6613 27.9784 33.3327 29.0828 31.7501 29.6575V20.6549C31.7537 20.2108 31.5142 19.7999 31.1243 19.579H31.1231ZM34.3484 14.7885C34.2919 14.7541 34.192 14.6947 34.121 14.6543L26.4524 10.2843C26.0637 10.0598 25.5823 10.0598 25.1923 10.2843L15.8305 15.6186V11.9254C15.8281 11.8874 15.8461 11.8506 15.8762 11.8268L23.6278 7.414C27.0806 5.44865 31.495 6.61836 33.4855 10.0266C34.3268 11.4658 34.6312 13.1509 34.346 14.7885H34.3484ZM14.0686 21.371L10.8264 19.5244C10.7915 19.5078 10.7687 19.4745 10.7638 19.4365V10.6025C10.7663 6.66942 14 3.4821 17.9859 3.48448C19.672 3.48448 21.3039 4.06874 22.6001 5.13276C22.5411 5.16364 22.44 5.21945 22.3726 5.25983L14.704 9.62992C14.3117 9.84962 14.071 10.2605 14.0734 10.7058L14.0686 21.3686V21.371ZM15.8293 17.6255L19.9993 15.2493L24.1694 17.6243V22.3756L19.9993 24.7507L15.8293 22.3756V17.6255Z" fill="white"/>
</svg>